Coordinates
version=1
nRows=16
nColumns=40
inDegrees=yes

Units are S.I. units (second, meters, Newtons, ...)
Angles are in degrees.

endheader
time	pelvis_tilt	pelvis_list	pelvis_rotation	pelvis_tx	pelvis_ty	pelvis_tz	hip_flexion_r	hip_adduction_r	hip_rotation_r	knee_angle_r	knee_angle_r_beta	ankle_angle_r	subtalar_angle_r	mtp_angle_r	hip_flexion_l	hip_adduction_l	hip_rotation_l	knee_angle_l	knee_angle_l_beta	ankle_angle_l	subtalar_angle_l	mtp_angle_l	lumbar_extension	lumbar_bending	lumbar_rotation	arm_flex_r	arm_add_r	arm_rot_r	elbow_flex_r	pro_sup_r	wrist_flex_r	wrist_dev_r	arm_flex_l	arm_add_l	arm_rot_l	elbow_flex_l	pro_sup_l	wrist_flex_l	wrist_dev_l
      0.00000000	      1.02344331	      1.62471071	     -1.93281196	     -1.58131448	      0.88743689	     -1.38614469	     28.90460994	      0.93324115	    -14.66212669	    -36.13955583	     -0.63075424	      0.45311316	     -8.50706296	     -0.13872978	    -10.35711067	      0.57170710	     15.28670779	    -11.99022776	     -0.20926895	     14.74137997	     -1.96709330	     -4.54643936	     -8.94546302	      2.78979592	     -5.38759189	      6.26282692	    -11.15585206	     22.93396444	     12.98376156	     89.95437384	      0.00000000	      0.00000000	     14.95993335	     16.47364178	     -9.66217304	     20.36226696	     89.95437384	      0.00000000	      0.00000000
      0.01000000	      1.21958769	      1.31049473	     -1.64032190	     -1.56978463	      0.88626236	     -1.38896661	     28.98714048	      1.01337880	    -15.44559504	    -32.83076857	     -0.57300501	     -0.62620265	     -7.52312161	      0.10776503	    -11.47979579	      0.78808740	     15.00324106	    -11.88736626	     -0.20747368	     14.95273886	     -2.25812282	     -4.73803797	     -9.28135801	      3.26834516	     -5.80225900	      5.90124262	    -11.48717222	     22.92941306	     12.19550998	     89.95437384	      0.00000000	      0.00000000	     16.22494083	     17.09108835	     -9.18580608	     21.74529175	     89.95437384	      0.00000000	      0.00000000
      0.02000000	      0.88435943	      1.60377319	     -1.48220004	     -1.55820172	      0.88392189	     -1.39165217	     29.92022317	      0.48844729	    -15.79683756	    -30.27654517	     -0.52842540	     -0.77573091	     -6.95240839	      0.19755909	    -11.90467137	      0.29151735	     14.96565259	    -11.87087422	     -0.20718584	     15.04217945	     -2.34287415	     -4.79704803	     -8.96265642	      3.05134867	     -5.88941479	      5.15999849	    -11.84769791	     22.90067717	     11.70572763	     89.95437384	      0.00000000	      0.00000000	     17.54278428	     17.63013628	     -8.95559194	     23.01949533	     89.95437384	      0.00000000	      0.00000000
      0.03000000	      1.33477611	      1.03646242	     -0.88979531	     -1.54608364	      0.88338511	     -1.39417365	     29.19833977	      0.75988599	    -16.63557331	    -26.60012241	     -0.46425972	     -1.40918943	     -5.48066361	      0.25079027	    -13.26767259	      0.89352509	     14.30285756	    -11.87735403	     -0.20729893	     15.10537063	     -2.31337220	     -5.08199862	     -9.57027664	      3.80915252	     -6.48425177	      4.76953197	    -12.10127772	     22.68368531	     11.01029717	     89.95437384	      0.00000000	      0.00000000	     18.52537680	     18.24718661	     -8.46257107	     24.86819922	     89.95437384	      0.00000000	      0.00000000
      0.04000000	      1.03002108	      1.02278771	     -0.63338613	     -1.53429237	      0.88151628	     -1.39620929	     29.70688917	      0.56086123	    -16.90138238	    -23.92353889	     -0.41754452	     -1.21701979	     -4.51724299	      0.18244444	    -13.67757900	      0.83709646	     13.91183477	    -12.04584513	     -0.21023966	     14.96564353	     -2.37903960	     -5.18176662	     -9.30869181	      3.88338112	     -6.64639082	      4.11119269	    -12.33790684	     22.55462021	     10.48155878	     89.95437384	      0.00000000	      0.00000000	     19.60001330	     18.74744306	     -8.17077637	     26.35670867	     89.95437384	      0.00000000	      0.00000000
      0.05000000	      0.88859837	      0.86154251	     -0.19900774	     -1.52220645	      0.88012883	     -1.39833375	     29.87541451	      0.35965265	    -17.67513655	    -21.38875964	     -0.37330428	     -1.17289240	     -3.41230188	      0.06118315	    -14.15544562	      1.02488256	     13.57395714	    -12.42356232	     -0.21683207	     14.95117331	     -2.24836291	     -5.30098491	     -9.19490151	      4.14000751	     -6.96459119	      3.48278287	    -12.55101926	     22.35659799	      9.93919055	     89.95437384	      0.00000000	      0.00000000	     20.53146869	     19.17722855	     -7.78823651	     27.95978825	     89.95437384	      0.00000000	      0.00000000
      0.06000000	      0.70689818	      0.63779149	      0.23710909	     -1.50987824	      0.87883796	     -1.40015310	     30.06905208	      0.18983215	    -18.79430662	    -19.30225453	     -0.33688789	     -1.29236584	     -2.19867821	     -0.11079809	    -14.51885074	      1.31867438	     13.14820456	    -12.97864539	     -0.22652009	     14.71299638	     -2.07826177	     -5.36951275	     -9.00720575	      4.43167171	     -7.24154961	      2.83392229	    -12.70445037	     22.08639607	      9.39954299	     89.95437384	      0.00000000	      0.00000000	     21.31707585	     19.52336188	     -7.28726749	     29.64394485	     89.95437384	      0.00000000	      0.00000000
      0.07000000	      0.77818225	      0.32618489	      0.72772563	     -1.49683470	      0.87813961	     -1.40194674	     30.05828906	     -0.22583798	    -21.30201622	    -18.13675766	     -0.31654614	     -1.40507082	      0.90087239	     -1.22760635	    -15.19476790	      1.78812093	     12.90473273	    -13.53949259	     -0.23630872	     14.38844499	     -2.23009026	     -5.73925787	     -9.00873778	      4.83341747	     -7.54861240	      2.26242785	    -12.70216201	     20.71038812	      8.67265135	     89.95437384	      0.00000000	      0.00000000	     21.95098871	     19.64586297	     -6.27088195	     31.30316136	     89.95437384	      0.00000000	      0.00000000
      0.08000000	      0.56220094	      0.12369319	      1.24539060	     -1.48381388	      0.87718688	     -1.40376378	     30.27093482	     -0.51653842	    -22.57785394	    -17.24085894	     -0.30090975	     -1.79749096	      2.22825596	     -1.90067770	    -15.34966069	      2.15324806	     12.45940515	    -14.42851490	     -0.25182509	     13.95574317	     -2.00677751	     -5.91637695	     -8.66777936	      5.10906175	     -7.86065901	      1.53726045	    -12.82609402	     20.28419402	      8.16914686	     89.95437384	      0.00000000	      0.00000000	     22.34612700	     19.82008532	     -5.67336924	     33.19768160	     89.95437384	      0.00000000	      0.00000000
      0.09000000	      0.27313881	     -0.03564264	      1.59226919	     -1.47051563	      0.87631941	     -1.40525398	     30.52522221	     -0.64456829	    -22.78028177	    -16.89423356	     -0.29486000	     -2.03698547	      2.76049316	     -2.08965644	    -15.47117196	      2.43844225	     12.03641277	    -15.25451547	     -0.26624152	     13.26801485	     -1.85267998	     -5.85000054	     -8.22210952	      5.29593772	     -8.03181357	      0.89054313	    -12.91225855	     19.95370156	      7.62310638	     89.95437384	      0.00000000	      0.00000000	     22.50586991	     20.00563739	     -5.14825800	     35.28096231	     89.95437384	      0.00000000	      0.00000000
      0.10000000	      0.07898577	     -0.14945009	      1.88021967	     -1.45684533	      0.87575545	     -1.40675971	     30.77090877	     -0.76348719	    -22.19153582	    -17.39322222	     -0.30356900	     -2.08331017	      2.78280744	     -2.10342206	    -15.64713685	      2.65234436	     11.57497945	    -16.12313623	     -0.28140181	     12.50927128	     -1.68434078	     -5.68958379	     -7.84727656	      5.43184487	     -7.86307749	     -0.10089516	    -13.13349027	     19.78918932	      7.49952128	     89.95437384	      0.00000000	      0.00000000	     22.87052611	     19.85560415	     -4.78017641	     36.97728761	     89.95437384	      0.00000000	      0.00000000
      0.11000000	      0.05847365	     -0.51787716	      2.28377215	     -1.44216360	      0.87561835	     -1.40803809	     30.68944133	     -0.58952025	    -21.37236883	    -18.30055069	     -0.31940486	     -1.97894753	      2.58160242	     -2.17922727	    -16.03542195	      3.24551308	     11.20315034	    -17.03430485	     -0.29730471	     11.40993234	     -1.35638786	     -5.55208815	     -7.56419200	      5.86033741	     -8.32174515	     -0.57082922	    -13.12635194	     19.41248245	      6.81334713	     89.95437384	      0.00000000	      0.00000000	     22.12246761	     20.06118534	     -3.64074725	     39.81986119	     89.95437384	      0.00000000	      0.00000000
      0.12000000	      0.01078446	     -0.77035311	      2.60153954	     -1.42734411	      0.87551154	     -1.40929243	     30.68373748	     -0.42414903	    -19.96864634	    -19.69386229	     -0.34372274	     -2.20873115	      2.34159647	     -2.13008209	    -16.27830721	      3.66912291	     10.48860903	    -18.15799820	     -0.31691685	     10.33673234	     -1.18724214	     -5.32694035	     -7.21483955	      6.14274241	     -8.20587586	     -1.59988365	    -13.33857547	     19.16328735	      6.93056996	     89.95437384	      0.00000000	      0.00000000	     22.04012668	     19.80143476	     -3.18888545	     41.61838648	     89.95437384	      0.00000000	      0.00000000
      0.13000000	      0.05287319	     -1.25692463	      2.59384533	     -1.41176218	      0.87562240	     -1.40943738	     30.30396572	      0.66865641	    -16.95370433	    -20.83054993	     -0.36356168	     -2.03209842	     -1.13486915	     -1.18966193	    -16.68162119	      4.41557854	     10.84890826	    -19.16442312	     -0.33448228	      8.45782560	     -1.26029878	     -6.16715870	     -6.93690098	      6.60729130	     -8.38538412	     -1.75866842	    -13.04766861	     16.98907389	      5.90674773	     89.95437384	      0.00000000	      0.00000000	     20.75278480	     19.82682988	     -1.51137426	     44.69083781	     89.95437384	      0.00000000	      0.00000000
      0.14000000	      0.12441064	     -1.55353381	      2.70873771	     -1.39580211	      0.87576627	     -1.40995134	     29.85911983	      1.28208294	    -15.01604943	    -22.31404068	     -0.38945348	     -1.59244522	     -1.63583655	     -0.82790997	    -16.98520441	      4.91162737	     10.60339491	    -20.41868813	     -0.35637334	      6.74660584	     -0.94996565	     -6.01121752	     -6.62674317	      6.86692105	     -8.44569265	     -2.40219797	    -13.08660355	     16.96840577	      5.63875071	     89.95437384	      0.00000000	      0.00000000	     19.74134558	     19.71719126	     -0.55180522	     47.23130398	     89.95437384	      0.00000000	      0.00000000
      0.15000000	      0.13840051	     -2.09609947	      2.70400030	     -1.37990000	      0.87608388	     -1.40988700	     29.47309364	      2.28233099	    -13.67390330	    -23.21839877	     -0.40523751	     -3.46801172	     -3.57773222	      0.94565269	    -16.95230073	      5.81898476	     11.04247152	    -22.13550875	     -0.38633751	      4.64984250	     -1.19879191	     -6.21493340	     -6.29892214	      7.37082479	     -8.28626862	     -3.04211202	    -13.11714873	     16.78231386	      5.55977083	     89.95437384	      0.00000000	      0.00000000	     18.76542177	     19.58092340	      0.08307926	     49.56943743	     89.95437384	      0.00000000	      0.00000000
